<?xml version="1.0" encoding="UTF-8"?>
<svg version="1.1" xmlns="http://www.w3.org/2000/svg" width="48" height="48">
<path d="M0 0 C0.7027002 -0.00191345 1.40540039 -0.0038269 2.12939453 -0.00579834 C3.61556354 -0.00715975 5.10174445 -0.00346632 6.58789062 0.00488281 C8.86615646 0.01558346 11.14363377 0.00498661 13.421875 -0.0078125 C14.86458508 -0.0064909 16.30729466 -0.00392849 17.75 0 C19.06742188 0.00225586 20.38484375 0.00451172 21.7421875 0.00683594 C24.875 0.265625 24.875 0.265625 26.875 2.265625 C29.21772205 6.73275092 29.26704136 11.08479694 29.4375 16.015625 C29.1794941 21.039606 29.1794941 21.039606 30.875 25.265625 C31.45669863 29.88106989 31.4991677 33.26695667 29 37.265625 C25.84541046 40.23465045 24.10948298 40.40293454 19.875 40.390625 C18.988125 40.39320312 18.10125 40.39578125 17.1875 40.3984375 C14.875 40.265625 14.875 40.265625 12.875 39.265625 C9.14202055 39.02449953 5.40992131 38.88254892 1.671875 38.7421875 C-2.39275123 38.23201836 -6.13668294 37.25394206 -9.125 34.265625 C-9.26615161 31.59503649 -9.16747107 28.94130262 -9.125 26.265625 C-8.135 26.265625 -7.145 26.265625 -6.125 26.265625 C-5.795 28.245625 -5.465 30.225625 -5.125 32.265625 C-4.465 32.265625 -3.805 32.265625 -3.125 32.265625 C-3.13023682 31.5135376 -3.13547363 30.7614502 -3.14086914 29.98657227 C-3.16157227 26.60043158 -3.17463877 23.21430416 -3.1875 19.828125 C-3.19587891 18.64412109 -3.20425781 17.46011719 -3.21289062 16.24023438 C-3.21611328 15.11552734 -3.21933594 13.99082031 -3.22265625 12.83203125 C-3.22789307 11.78990479 -3.23312988 10.74777832 -3.23852539 9.67407227 C-3.125 7.265625 -3.125 7.265625 -2.125 6.265625 C-0.27130389 6.17824855 1.58567541 6.15864347 3.44140625 6.16796875 C4.56611328 6.17119141 5.69082031 6.17441406 6.84960938 6.17773438 C8.03361328 6.18611328 9.21761719 6.19449219 10.4375 6.203125 C11.62537109 6.20763672 12.81324219 6.21214844 14.03710938 6.21679688 C16.98312226 6.22862825 19.92903681 6.24511213 22.875 6.265625 C22.875 5.605625 22.875 4.945625 22.875 4.265625 C13.635 4.265625 4.395 4.265625 -5.125 4.265625 C-5.455 10.205625 -5.785 16.145625 -6.125 22.265625 C-7.115 22.265625 -8.105 22.265625 -9.125 22.265625 C-9.18290353 18.97403184 -9.21856261 15.68256897 -9.25 12.390625 C-9.26675781 11.45347656 -9.28351562 10.51632813 -9.30078125 9.55078125 C-9.31044922 8.20693359 -9.31044922 8.20693359 -9.3203125 6.8359375 C-9.33078613 6.00852051 -9.34125977 5.18110352 -9.35205078 4.32861328 C-8.7664674 -0.99200992 -4.25571103 0.00728718 0 0 Z " fill="#FADB80" transform="translate(15.125,5.734375)"/>
<path d="M0 0 C0.7027002 -0.00191345 1.40540039 -0.0038269 2.12939453 -0.00579834 C3.61556354 -0.00715975 5.10174445 -0.00346632 6.58789062 0.00488281 C8.86615646 0.01558346 11.14363377 0.00498661 13.421875 -0.0078125 C14.86458508 -0.0064909 16.30729466 -0.00392849 17.75 0 C19.06742188 0.00225586 20.38484375 0.00451172 21.7421875 0.00683594 C24.875 0.265625 24.875 0.265625 26.875 2.265625 C27.0703125 5.3046875 27.0703125 5.3046875 27 8.890625 C26.98195312 10.07914063 26.96390625 11.26765625 26.9453125 12.4921875 C26.92210937 13.40742188 26.89890625 14.32265625 26.875 15.265625 C25.885 15.265625 24.895 15.265625 23.875 15.265625 C23.38 9.820625 23.38 9.820625 22.875 4.265625 C13.635 4.265625 4.395 4.265625 -5.125 4.265625 C-5.455 10.205625 -5.785 16.145625 -6.125 22.265625 C-7.115 22.265625 -8.105 22.265625 -9.125 22.265625 C-9.18290353 18.97403184 -9.21856261 15.68256897 -9.25 12.390625 C-9.26675781 11.45347656 -9.28351562 10.51632813 -9.30078125 9.55078125 C-9.31044922 8.20693359 -9.31044922 8.20693359 -9.3203125 6.8359375 C-9.33078613 6.00852051 -9.34125977 5.18110352 -9.35205078 4.32861328 C-8.7664674 -0.99200992 -4.25571103 0.00728718 0 0 Z " fill="#17183F" transform="translate(15.125,5.734375)"/>
<path d="M0 0 C0.66 0.33 1.32 0.66 2 1 C2.6271777 8.99651568 2.6271777 8.99651568 0.125 13 C-3.60261928 16.50834756 -6.62752205 16.328739 -11.578125 16.29296875 C-14 16 -14 16 -16.625 14.125 C-18 12 -18 12 -18 10 C-15.83125748 10.50603992 -14.00032373 10.99983813 -12 12 C-8.48080989 12.38252066 -6.65863963 12.44502678 -3.6875 10.4375 C-1.53390183 7.32674709 -1.35133843 4.72418732 -1 1 C-0.67 0.67 -0.34 0.34 0 0 Z " fill="#1E1E40" transform="translate(44,30)"/>
<path d="M0 0 C0.99 0 1.98 0 3 0 C3.33 1.98 3.66 3.96 4 6 C7.63 6.33 11.26 6.66 15 7 C15 7.99 15 8.98 15 10 C12.87527424 10.05386629 10.75016348 10.09273071 8.625 10.125 C6.84996094 10.15980469 6.84996094 10.15980469 5.0390625 10.1953125 C2 10 2 10 0 8 C-0.26991906 5.31160615 -0.08737357 2.70858064 0 0 Z " fill="#18193F" transform="translate(6,32)"/>
<path d="M0 0 C0.66 0.33 1.32 0.66 2 1 C2 1.99 2 2.98 2 4 C1.39671875 3.95359375 0.7934375 3.9071875 0.171875 3.859375 C-4.98193871 3.55409704 -4.98193871 3.55409704 -9.5 5.75 C-10.94055033 7.9108255 -11.63515574 9.44609016 -12 12 C-12.99 12 -13.98 12 -15 12 C-14.82473367 7.53070868 -14.41954213 5.48093854 -11.4375 2.0625 C-7.67392638 -0.71689456 -4.54875813 -0.45487581 0 0 Z " fill="#2D2B45" transform="translate(39,24)"/>
<path d="M0 0 C0.66 0 1.32 0 2 0 C2 0.66 2 1.32 2 2 C2.66 2 3.32 2 4 2 C4 4.66666667 4 7.33333333 4 10 C3.34 10 2.68 10 2 10 C2 10.66 2 11.32 2 12 C1.34 12 0.68 12 0 12 C0 11.34 0 10.68 0 10 C-0.66 10 -1.32 10 -2 10 C-2 7.33333333 -2 4.66666667 -2 2 C-1.34 2 -0.68 2 0 2 C0 1.34 0 0.68 0 0 Z " fill="#3B3849" transform="translate(34,29)"/>
<path d="M0 0 C3.3 0 6.6 0 10 0 C10 0.99 10 1.98 10 3 C6.7 3 3.4 3 0 3 C0 2.01 0 1.02 0 0 Z " fill="#272643" transform="translate(19,13)"/>
</svg>
