<?xml version="1.0" encoding="UTF-8"?>
<svg version="1.1" xmlns="http://www.w3.org/2000/svg" width="96" height="96">
<path d="M0 0 C0.78436935 -0.00807175 1.56873871 -0.01614349 2.37687683 -0.02445984 C4.03874502 -0.03829937 5.70064162 -0.04902212 7.36254883 -0.05688477 C9.8978501 -0.07408228 12.43184189 -0.1179653 14.96679688 -0.16210938 C16.58202167 -0.1722379 18.19725754 -0.18075351 19.8125 -0.1875 C20.56787552 -0.20500809 21.32325104 -0.22251617 22.10151672 -0.24055481 C25.82113416 -0.22531209 27.90249854 0.10770101 31.0612793 2.13989258 C34.40049609 5.56764467 34.21784314 7.67508893 34.16796875 12.36328125 C34.15894531 13.45898438 34.14992188 14.5546875 34.140625 15.68359375 C34.12902344 16.52664062 34.11742188 17.3696875 34.10546875 18.23828125 C34.89308594 18.37105469 35.68070312 18.50382812 36.4921875 18.640625 C39.10546875 19.23828125 39.10546875 19.23828125 40.91796875 20.80078125 C42.66178938 24.38020255 42.30337883 27.28007967 42.10546875 31.23828125 C43.59046875 31.73328125 43.59046875 31.73328125 45.10546875 32.23828125 C46.25453252 34.53640879 46.24957251 35.88387872 46.2824707 38.44091797 C46.30172356 39.74269485 46.30172356 39.74269485 46.32136536 41.07077026 C46.32875229 42.01034576 46.33613922 42.94992126 46.34375 43.91796875 C46.35182175 44.88227814 46.35989349 45.84658752 46.36820984 46.84011841 C46.38205355 48.88281453 46.39277442 50.92553381 46.40063477 52.96826172 C46.41786176 56.09386906 46.46174696 59.21842266 46.50585938 62.34375 C46.51598492 64.32681513 46.52450146 66.30988926 46.53125 68.29296875 C46.54875809 69.22849579 46.56626617 70.16402283 46.58430481 71.12789917 C46.58137924 72.00205475 46.57845367 72.87621033 46.57543945 73.77685547 C46.58130569 74.54359589 46.58717194 75.3103363 46.59321594 76.10031128 C45.88847323 79.18945005 44.61837588 80.35283214 42.10546875 82.23828125 C39.42254639 82.71929932 39.42254639 82.71929932 36.32714844 82.69238281 C34.5857962 82.69192963 34.5857962 82.69192963 32.80926514 82.69146729 C31.56123108 82.67082214 30.31319702 82.650177 29.02734375 82.62890625 C27.74563293 82.62324646 26.46392212 82.61758667 25.14337158 82.61175537 C21.74333247 82.59651593 18.34398181 82.55725041 14.94421387 82.51293945 C11.47201856 82.47194924 7.99971151 82.45373646 4.52734375 82.43359375 C-2.28022991 82.39075325 -9.08734749 82.32252337 -15.89453125 82.23828125 C-16.55453125 80.91828125 -17.21453125 79.59828125 -17.89453125 78.23828125 C-18.94640625 78.34140625 -19.99828125 78.44453125 -21.08203125 78.55078125 C-24.89453125 78.23828125 -24.89453125 78.23828125 -27.60229492 76.30981445 C-30.76890053 72.06665063 -30.53554394 68.93624169 -30.3828125 63.78125 C-30.37573776 62.8782869 -30.36866302 61.97532379 -30.3613739 61.04499817 C-30.33346444 58.17107037 -30.27073357 55.29911653 -30.20703125 52.42578125 C-30.18194387 50.4733355 -30.15913147 48.5208591 -30.13867188 46.56835938 C-30.08364914 41.79091023 -29.99740123 37.01492999 -29.89453125 32.23828125 C-28.23838468 31.85609358 -26.56996101 31.52433023 -24.89453125 31.23828125 C-22.78783666 33.34497584 -23.63560636 37.95084414 -23.578125 40.8671875 C-23.5573439 41.7314183 -23.53656281 42.59564911 -23.51515198 43.48606873 C-23.44956011 46.2575557 -23.39072707 49.02914046 -23.33203125 51.80078125 C-23.28885517 53.67514048 -23.24524119 55.54948968 -23.20117188 57.42382812 C-23.09386898 62.02854461 -22.9926291 66.63335983 -22.89453125 71.23828125 C-21.24453125 71.56828125 -19.59453125 71.89828125 -17.89453125 72.23828125 C-17.90500488 71.03703613 -17.91547852 69.83579102 -17.92626953 68.59814453 C-17.96240412 64.15156013 -17.98540782 59.70498877 -18.00439453 55.25830078 C-18.01446707 53.33184631 -18.02812568 51.40540717 -18.04541016 49.47900391 C-18.06960366 46.71382873 -18.08100161 43.94885525 -18.08984375 41.18359375 C-18.10016632 40.31896515 -18.11048889 39.45433655 -18.12112427 38.56350708 C-18.12152231 36.45374604 -18.01718368 34.34447407 -17.89453125 32.23828125 C-15.89453125 30.23828125 -15.89453125 30.23828125 -13.67990112 29.99777222 C-12.30090134 30.00443405 -12.30090134 30.00443405 -10.89404297 30.01123047 C-9.85311493 30.01138153 -8.81218689 30.01153259 -7.73971558 30.01168823 C-6.04904465 30.02717209 -6.04904465 30.02717209 -4.32421875 30.04296875 C-3.17285431 30.04579865 -2.02148987 30.04862854 -0.8352356 30.05154419 C2.85343687 30.06276717 6.54186928 30.08787569 10.23046875 30.11328125 C12.726559 30.12330831 15.22265305 30.13243463 17.71875 30.140625 C23.84773859 30.16271341 29.97658652 30.19621178 36.10546875 30.23828125 C35.77546875 28.58828125 35.44546875 26.93828125 35.10546875 25.23828125 C34.36488724 25.23685623 33.62430573 25.23543121 32.86128235 25.23396301 C25.87239492 25.21611277 18.88400894 25.17443947 11.89544392 25.10619068 C8.30268871 25.07193997 4.71035782 25.04681387 1.11743164 25.04272461 C-2.35187233 25.03843724 -5.82021948 25.00994109 -9.28922462 24.96484947 C-11.25275679 24.94559195 -13.21648206 24.95122768 -15.18009949 24.95722961 C-25.11432013 24.79473137 -25.11432013 24.79473137 -28.20385742 21.82299805 C-30.32110151 18.58613694 -30.64479504 16.93416022 -30.3671875 13.17578125 C-29.48879794 9.57510999 -27.94520547 8.23055829 -24.89453125 6.23828125 C-21.84507889 5.84562601 -18.94908244 5.93881545 -15.89453125 6.23828125 C-15.56453125 7.88828125 -15.23453125 9.53828125 -14.89453125 11.23828125 C-20.64453125 13.23828125 -20.64453125 13.23828125 -22.89453125 13.23828125 C-22.89453125 14.55828125 -22.89453125 15.87828125 -22.89453125 17.23828125 C-19.92453125 17.56828125 -16.95453125 17.89828125 -13.89453125 18.23828125 C-13.9409375 17.43003906 -13.98734375 16.62179688 -14.03515625 15.7890625 C-14.33258738 6.98297666 -14.33258738 6.98297666 -12.01953125 3.05078125 C-8.18158978 -0.22275706 -4.84704891 0.04702201 0 0 Z M-6.89453125 8.23828125 C-8.05228185 11.71153306 -7.96319777 14.59895573 -7.89453125 18.23828125 C-5.25453125 18.23828125 -2.61453125 18.23828125 0.10546875 18.23828125 C0.10546875 14.27828125 0.10546875 10.31828125 0.10546875 6.23828125 C-3.03204346 6.23828125 -4.29210711 6.5900793 -6.89453125 8.23828125 Z M8.10546875 6.23828125 C8.10546875 10.19828125 8.10546875 14.15828125 8.10546875 18.23828125 C14.70546875 18.23828125 21.30546875 18.23828125 28.10546875 18.23828125 C28.47723357 12.04510245 28.47723357 12.04510245 26.10546875 7.23828125 C22.48679316 6.03205605 19.18040624 6.13011207 15.41796875 6.17578125 C14.71607422 6.18029297 14.01417969 6.18480469 13.29101562 6.18945312 C11.56246337 6.20121198 9.8339551 6.21914671 8.10546875 6.23828125 Z " fill="#FEAA90" transform="translate(41.89453125,5.76171875)"/>
<path d="M0 0 C0.78436935 -0.00807175 1.56873871 -0.01614349 2.37687683 -0.02445984 C4.03874502 -0.03829937 5.70064162 -0.04902212 7.36254883 -0.05688477 C9.8978501 -0.07408228 12.43184189 -0.1179653 14.96679688 -0.16210938 C16.58202167 -0.1722379 18.19725754 -0.18075351 19.8125 -0.1875 C20.56787552 -0.20500809 21.32325104 -0.22251617 22.10151672 -0.24055481 C25.82113416 -0.22531209 27.90249854 0.10770101 31.0612793 2.13989258 C34.40049609 5.56764467 34.21784314 7.67508893 34.16796875 12.36328125 C34.15894531 13.45898438 34.14992188 14.5546875 34.140625 15.68359375 C34.12902344 16.52664062 34.11742188 17.3696875 34.10546875 18.23828125 C34.86859375 18.32078125 35.63171875 18.40328125 36.41796875 18.48828125 C39.10546875 19.23828125 39.10546875 19.23828125 40.75512695 20.82324219 C42.63659983 24.1881906 42.44415566 26.78858104 42.3984375 30.62890625 C42.39419266 31.3335199 42.38994781 32.03813354 42.38557434 32.76409912 C42.36883413 35.00588837 42.33119279 37.24676556 42.29296875 39.48828125 C42.27791579 41.01170573 42.26422845 42.53514436 42.25195312 44.05859375 C42.21894666 47.78545066 42.16719729 51.51177688 42.10546875 55.23828125 C40.44932218 55.62046892 38.78089851 55.95223227 37.10546875 56.23828125 C35.21915332 54.35196582 35.86281583 51.09627432 35.7890625 48.578125 C35.7682814 47.9136586 35.74750031 47.2491922 35.72608948 46.56459045 C35.66053217 44.43509582 35.6016809 42.30547457 35.54296875 40.17578125 C35.49978936 38.73501278 35.45617526 37.29425726 35.41210938 35.85351562 C35.30484482 32.31524085 35.20359504 28.77682256 35.10546875 25.23828125 C34.36488724 25.23685623 33.62430573 25.23543121 32.86128235 25.23396301 C25.87239492 25.21611277 18.88400894 25.17443947 11.89544392 25.10619068 C8.30268871 25.07193997 4.71035782 25.04681387 1.11743164 25.04272461 C-2.35187233 25.03843724 -5.82021948 25.00994109 -9.28922462 24.96484947 C-11.25275679 24.94559195 -13.21648206 24.95122768 -15.18009949 24.95722961 C-25.11432013 24.79473137 -25.11432013 24.79473137 -28.20385742 21.82299805 C-30.32110151 18.58613694 -30.64479504 16.93416022 -30.3671875 13.17578125 C-29.48879794 9.57510999 -27.94520547 8.23055829 -24.89453125 6.23828125 C-21.84507889 5.84562601 -18.94908244 5.93881545 -15.89453125 6.23828125 C-15.56453125 7.88828125 -15.23453125 9.53828125 -14.89453125 11.23828125 C-20.64453125 13.23828125 -20.64453125 13.23828125 -22.89453125 13.23828125 C-22.89453125 14.55828125 -22.89453125 15.87828125 -22.89453125 17.23828125 C-19.92453125 17.56828125 -16.95453125 17.89828125 -13.89453125 18.23828125 C-13.9409375 17.43003906 -13.98734375 16.62179688 -14.03515625 15.7890625 C-14.33258738 6.98297666 -14.33258738 6.98297666 -12.01953125 3.05078125 C-8.18158978 -0.22275706 -4.84704891 0.04702201 0 0 Z M-6.89453125 8.23828125 C-8.05228185 11.71153306 -7.96319777 14.59895573 -7.89453125 18.23828125 C-5.25453125 18.23828125 -2.61453125 18.23828125 0.10546875 18.23828125 C0.10546875 14.27828125 0.10546875 10.31828125 0.10546875 6.23828125 C-3.03204346 6.23828125 -4.29210711 6.5900793 -6.89453125 8.23828125 Z M8.10546875 6.23828125 C8.10546875 10.19828125 8.10546875 14.15828125 8.10546875 18.23828125 C14.70546875 18.23828125 21.30546875 18.23828125 28.10546875 18.23828125 C28.47723357 12.04510245 28.47723357 12.04510245 26.10546875 7.23828125 C22.48679316 6.03205605 19.18040624 6.13011207 15.41796875 6.17578125 C14.71607422 6.18029297 14.01417969 6.18480469 13.29101562 6.18945312 C11.56246337 6.20121198 9.8339551 6.21914671 8.10546875 6.23828125 Z " fill="#18193E" transform="translate(41.89453125,5.76171875)"/>
<path d="M0 0 C1.65 0.33 3.3 0.66 5 1 C5.33 13.87 5.66 26.74 6 40 C25.14 40 44.28 40 64 40 C64.33 37.69 64.66 35.38 65 33 C67.0625 31.5625 67.0625 31.5625 69 31 C71 33 71 33 71.3125 36.3125 C70.98224889 40.20946309 70.42016634 41.97479208 68 45 C64.7054392 47.11395092 61.98748257 47.26687697 58.11743164 47.30639648 C56.93262711 47.32238388 55.74782257 47.33837128 54.52711487 47.35484314 C53.25101852 47.36020584 51.97492218 47.36556854 50.66015625 47.37109375 C48.68878944 47.38463646 48.68878944 47.38463646 46.67759705 47.39845276 C43.89775133 47.41492147 41.11802576 47.42263917 38.33813477 47.42553711 C34.78243626 47.43092438 31.227872 47.46862479 27.67249393 47.51428127 C24.27255304 47.5512364 20.87279118 47.5525665 17.47265625 47.55859375 C16.19858414 47.57812607 14.92451202 47.59765839 13.61183167 47.61778259 C4.97542553 47.57359771 4.97542553 47.57359771 0.69067383 45.05395508 C-1.66567049 40.79756358 -1.64859058 37.3695255 -1.5234375 32.578125 C-1.5163829 31.22723785 -1.5163829 31.22723785 -1.50918579 29.84906006 C-1.48788575 26.98191946 -1.4312653 24.11664477 -1.375 21.25 C-1.35848982 19.30600693 -1.34414254 17.3619942 -1.33203125 15.41796875 C-1.1956375 1.1956375 -1.1956375 1.1956375 0 0 Z " fill="#18193F" transform="translate(13,37)"/>
<path d="M0 0 C1.32278481 5.41139241 1.32278481 5.41139241 -0.0625 7.9375 C-2.91093248 9.49954362 -4.93504903 8.74921024 -8 8 C-9.32278481 2.58860759 -9.32278481 2.58860759 -7.9375 0.0625 C-5.08906752 -1.49954362 -3.06495097 -0.74921024 0 0 Z " fill="#242043" transform="translate(71,49)"/>
</svg>
