<?xml version="1.0" encoding="UTF-8"?>
<svg version="1.1" xmlns="http://www.w3.org/2000/svg" width="48" height="48">
<path d="M0 0 C2.90598539 0.54064844 4.84993077 0.22966066 7.6875 -0.5 C7.6875 3.5 7.6875 3.5 6.1875 5.25 C5.6925 5.6625 5.1975 6.075 4.6875 6.5 C6.6675 5.84 8.6475 5.18 10.6875 4.5 C10.6875 3.51 10.6875 2.52 10.6875 1.5 C13.52548294 -0.51023791 15.43390292 -0.55105942 18.75 -0.0625 C22.58035508 0.78416697 22.58035508 0.78416697 25.6875 -0.5 C26.3475 -0.17 27.0075 0.16 27.6875 0.5 C27.831875 1.16 27.97625 1.82 28.125 2.5 C28.310625 3.16 28.49625 3.82 28.6875 4.5 C29.6775 4.83 30.6675 5.16 31.6875 5.5 C31.74357422 7.27117188 31.74357422 7.27117188 31.80078125 9.078125 C31.86645149 10.63544788 31.93289847 12.19273814 32 13.75 C32.03383789 14.91595703 32.03383789 14.91595703 32.06835938 16.10546875 C32.28135613 20.63649054 32.69315972 22.95551846 35.6875 26.5 C36.35164048 29.90371994 36.28213131 33.08637584 35.6875 36.5 C33.4375 39.6875 33.4375 39.6875 30.6875 41.5 C28.375 41.3125 28.375 41.3125 26.6875 40.5 C26.6875 41.16 26.6875 41.82 26.6875 42.5 C20.27432635 42.75149701 20.27432635 42.75149701 17.0625 41.375 C14.65807689 40.18819147 14.65807689 40.18819147 12.1875 41.5 C9.6875 42.5 9.6875 42.5 7.125 41.5625 C5.9184375 41.0365625 5.9184375 41.0365625 4.6875 40.5 C3.98625 40.685625 3.285 40.87125 2.5625 41.0625 C1.94375 41.206875 1.325 41.35125 0.6875 41.5 C-0.9375 40.125 -0.9375 40.125 -2.3125 38.5 C-2.9725 38.17 -3.6325 37.84 -4.3125 37.5 C-4.3125 25.29 -4.3125 13.08 -4.3125 0.5 C-2.3125 -0.5 -2.3125 -0.5 0 0 Z M15.6875 3.5 C15.0275 4.16 14.3675 4.82 13.6875 5.5 C14.6775 5.83 15.6675 6.16 16.6875 6.5 C17.3475 5.84 18.0075 5.18 18.6875 4.5 C17.6975 4.17 16.7075 3.84 15.6875 3.5 Z M-1.3125 4.5 C-1.3125 14.07 -1.3125 23.64 -1.3125 33.5 C-0.9825 33.5 -0.6525 33.5 -0.3125 33.5 C-0.3125 23.93 -0.3125 14.36 -0.3125 4.5 C-0.6425 4.5 -0.9725 4.5 -1.3125 4.5 Z " fill="#89E1EE" transform="translate(12.3125,5.5)"/>
<path d="M0 0 C2.90598539 0.54064844 4.84993077 0.22966066 7.6875 -0.5 C7.6875 0.82 7.6875 2.14 7.6875 3.5 C4.6875 5.5 4.6875 5.5 -0.3125 5.5 C-0.3125 14.41 -0.3125 23.32 -0.3125 32.5 C4.49138386 33.63074409 4.49138386 33.63074409 8.6875 33.5 C10.0075 33.5 11.3275 33.5 12.6875 33.5 C12.3575 34.49 12.0275 35.48 11.6875 36.5 C7.54780303 38.38168044 5.03893856 38.55845803 0.6875 37.5 C-0.7975 37.995 -0.7975 37.995 -2.3125 38.5 C-2.9725 38.17 -3.6325 37.84 -4.3125 37.5 C-4.3125 25.29 -4.3125 13.08 -4.3125 0.5 C-2.3125 -0.5 -2.3125 -0.5 0 0 Z " fill="#1A1D42" transform="translate(12.3125,5.5)"/>
<path d="M0 0 C3.83035508 0.84666697 3.83035508 0.84666697 6.9375 -0.4375 C7.5975 -0.1075 8.2575 0.2225 8.9375 0.5625 C8.9375 5.8425 8.9375 11.1225 8.9375 16.5625 C7.9475 16.5625 6.9575 16.5625 5.9375 16.5625 C5.6075 12.9325 5.2775 9.3025 4.9375 5.5625 C-1.12300614 4.4812609 -1.12300614 4.4812609 -7.0625 5.5625 C-7.3925 4.2425 -7.7225 2.9225 -8.0625 1.5625 C-5.22451706 -0.44773791 -3.31609708 -0.48855942 0 0 Z " fill="#181B40" transform="translate(31.0625,5.4375)"/>
<path d="M0 0 C7.92373906 0.18624173 7.92373906 0.18624173 11.5625 2.9375 C13.57836919 7.23217784 13.8426985 11.33099478 13 16 C11.47265625 18.30859375 11.47265625 18.30859375 10 20 C9.01 19.67 8.02 19.34 7 19 C7.165 18.505 7.33 18.01 7.5 17.5 C8.30641834 13.46790828 8.86987216 8.73974432 7 5 C4.6859378 4.26924352 2.35171131 3.59861742 0 3 C0 2.01 0 1.02 0 0 Z " fill="#1D2246" transform="translate(35,26)"/>
<path d="M0 0 C0.99 0.33 1.98 0.66 3 1 C2.88140625 1.60328125 2.7628125 2.2065625 2.640625 2.828125 C1.70080086 7.91291994 1.70080086 7.91291994 3.625 12.5 C6.14823562 14.0936225 8.04969469 14.6721883 11 15 C11 15.99 11 16.98 11 18 C4.64588529 18.48877805 4.64588529 18.48877805 1.6875 16.25 C-1.72868354 11.69508861 -2.42284596 8.81413201 -2 3 C-1.34 2.01 -0.68 1.02 0 0 Z " fill="#1B1E43" transform="translate(28,30)"/>
<path d="M0 0 C0.99 1.32 1.98 2.64 3 4 C0.61426621 5.89213369 -1.07175348 7.02391783 -4 8 C-4.804375 7.67 -5.60875 7.34 -6.4375 7 C-9.2281724 5.91095711 -10.25369638 5.98285051 -13 7 C-13.33 5.68 -13.66 4.36 -14 3 C-11.72120076 2.26752881 -10.43528814 1.85490395 -8.125 2.625 C-4.83996905 3.20471134 -2.8089114 1.59597239 0 0 Z " fill="#86E0EC" transform="translate(26,40)"/>
<path d="M0 0 C6.6 0 13.2 0 20 0 C20 0.99 20 1.98 20 3 C13.4 3 6.8 3 0 3 C0 2.01 0 1.02 0 0 Z " fill="#1B2045" transform="translate(14,16)"/>
<path d="M0 0 C5.28 0 10.56 0 16 0 C16 0.99 16 1.98 16 3 C10.72 3 5.44 3 0 3 C0 2.01 0 1.02 0 0 Z " fill="#1A1E43" transform="translate(14,25)"/>
<path d="M0 0 C0.66 0 1.32 0 2 0 C1.59316505 2.35964273 1.10185661 3.85934088 -0.3125 5.8125 C-2 7 -2 7 -4.125 6.875 C-4.74375 6.58625 -5.3625 6.2975 -6 6 C-6.33 5.01 -6.66 4.02 -7 3 C-6.21625 2.87625 -5.4325 2.7525 -4.625 2.625 C-1.85942178 2.20882007 -1.85942178 2.20882007 0 0 Z " fill="#1B1E44" transform="translate(40,33)"/>
<path d="M0 0 C0.99 0.33 1.98 0.66 3 1 C2.67 1.99 2.34 2.98 2 4 C1.34 4 0.68 4 0 4 C-0.33 5.98 -0.66 7.96 -1 10 C-1.33 10 -1.66 10 -2 10 C-2.25 3.375 -2.25 3.375 0 0 Z " fill="#2F4263" transform="translate(28,30)"/>
<path d="M0 0 C1.98 0 3.96 0 6 0 C6 0.99 6 1.98 6 3 C4.02 3 2.04 3 0 3 C0 2.01 0 1.02 0 0 Z " fill="#20284B" transform="translate(14,31)"/>
</svg>
