<?xml version="1.0" encoding="UTF-8"?>
<svg version="1.1" xmlns="http://www.w3.org/2000/svg" width="64" height="64">
<path d="M0 0 C2.84625 1.464375 5.6925 2.92875 8.625 4.4375 C8.625 12.0275 8.625 19.6175 8.625 27.4375 C-0.375 31.9375 -0.375 31.9375 -4.375 32.4375 C-4.375 33.7575 -4.375 35.0775 -4.375 36.4375 C-6.09790605 37.14054222 -7.82867466 37.82433491 -9.5625 38.5 C-10.52542969 38.88285156 -11.48835938 39.26570313 -12.48046875 39.66015625 C-15.6606815 40.51422148 -17.21217209 40.07106332 -20.375 39.4375 C-23.2169323 40.29793947 -25.83488679 41.44718078 -28.55859375 42.625 C-35.33423772 44.57969341 -40.87215619 40.93579107 -46.75 37.875 C-47.58144531 37.45025391 -48.41289063 37.02550781 -49.26953125 36.58789062 C-51.3084139 35.54501386 -53.34222886 34.49223974 -55.375 33.4375 C-54.715 30.1375 -54.055 26.8375 -53.375 23.4375 C-54.035 23.4375 -54.695 23.4375 -55.375 23.4375 C-55.29121094 22.76203125 -55.20742188 22.0865625 -55.12109375 21.390625 C-55.01925781 20.49859375 -54.91742188 19.6065625 -54.8125 18.6875 C-54.70808594 17.80578125 -54.60367188 16.9240625 -54.49609375 16.015625 C-54.38043324 13.55317549 -54.63861305 11.77211936 -55.375 9.4375 C-53.5847939 8.76692113 -51.79278511 8.1011531 -50 7.4375 C-49.00226562 7.06625 -48.00453125 6.695 -46.9765625 6.3125 C-44.375 5.4375 -44.375 5.4375 -42.375 5.4375 C-42.375 4.1175 -42.375 2.7975 -42.375 1.4375 C-32.04720728 -3.31818321 -32.04720728 -3.31818321 -26.375 -1.5625 C-25.59125 -1.376875 -24.8075 -1.19125 -24 -1 C-23.195625 -0.7834375 -23.195625 -0.7834375 -22.375 -0.5625 C-22.375 -1.2225 -22.375 -1.8825 -22.375 -2.5625 C-13.58291077 -6.95854462 -8.3523854 -4.34801494 0 0 Z " fill="#545E69" transform="translate(55.375,15.5625)"/>
<path d="M0 0 C5.47310915 0.54385785 9.58615159 2.55638542 14.375 5.0625 C16.89125 6.361875 19.4075 7.66125 22 9 C22 16.59 22 24.18 22 32 C9.60244115 37.64777681 9.60244115 37.64777681 4 36 C0.80235043 34.61319407 -2.28443749 33.04685991 -5.375 31.4375 C-6.20644531 31.01275391 -7.03789063 30.58800781 -7.89453125 30.15039062 C-9.9334139 29.10751386 -11.96722886 28.05473974 -14 27 C-13.34 23.7 -12.68 20.4 -12 17 C-12.66 17 -13.32 17 -14 17 C-13.34 13.7 -12.68 10.4 -12 7 C-7.71021613 8.30475622 -4.03343207 10.0052057 -0.125 12.1875 C6.59819338 15.6115799 9.82820813 15.33142294 16.9375 13.0625 C19.15837204 12.17518809 19.15837204 12.17518809 20 10 C19.02160156 10.34224609 19.02160156 10.34224609 18.0234375 10.69140625 C17.14945313 10.97886719 16.27546875 11.26632813 15.375 11.5625 C14.51648438 11.85253906 13.65796875 12.14257812 12.7734375 12.44140625 C6.98902572 13.60643567 2.70649186 11.59116797 -2.375 8.9375 C-3.43460938 8.38964844 -4.49421875 7.84179688 -5.5859375 7.27734375 C-6.78089844 6.64505859 -6.78089844 6.64505859 -8 6 C-6.49736177 2.99472353 -4.08347159 3.02782386 -1 2 C-0.67 1.34 -0.34 0.68 0 0 Z " fill="#70C0FB" transform="translate(14,22)"/>
<path d="M0 0 C2.84625 1.464375 5.6925 2.92875 8.625 4.4375 C8.625 12.0275 8.625 19.6175 8.625 27.4375 C-0.375 31.9375 -0.375 31.9375 -4.375 32.4375 C-4.27119019 31.56182373 -4.27119019 31.56182373 -4.1652832 30.66845703 C-3.54253226 24.23780766 -2.96820813 17.54985645 -5.375 11.4375 C-10.40974099 6.23433432 -17.63262223 3.71861241 -24.375 1.4375 C-24.375 0.7775 -24.375 0.1175 -24.375 -0.5625 C-23.715 -0.5625 -23.055 -0.5625 -22.375 -0.5625 C-22.375 -1.2225 -22.375 -1.8825 -22.375 -2.5625 C-13.58291077 -6.95854462 -8.3523854 -4.34801494 0 0 Z " fill="#70C1FD" transform="translate(55.375,15.5625)"/>
<path d="M0 0 C4.79215297 1.40271448 8.93825085 3.67676364 13.3046875 6.06640625 C16.3159375 7.69578125 19.3271875 9.32515625 22.4296875 11.00390625 C22.4296875 17.93390625 22.4296875 24.86390625 22.4296875 32.00390625 C18.4296875 34.00390625 18.4296875 34.00390625 15.4296875 34.00390625 C15.4296875 27.07390625 15.4296875 20.14390625 15.4296875 13.00390625 C13.4496875 12.34390625 11.4696875 11.68390625 9.4296875 11.00390625 C8.12233309 10.39318719 6.83012315 9.74800283 5.5625 9.05859375 C4.90507812 8.70410156 4.24765625 8.34960938 3.5703125 7.984375 C2.90515625 7.61957031 2.24 7.25476563 1.5546875 6.87890625 C0.86632812 6.50636719 0.17796875 6.13382813 -0.53125 5.75 C-2.21326048 4.83891099 -3.89211686 3.9220031 -5.5703125 3.00390625 C-3.81146062 0.56105642 -3.06348728 0.00465576 0 0 Z " fill="#FAFAFA" transform="translate(24.5703125,16.99609375)"/>
<path d="M0 0 C4.98599117 0.53800209 8.51835705 2.11744529 12.875 4.5625 C14.02742188 5.20316406 15.17984375 5.84382813 16.3671875 6.50390625 C17.67042969 7.24447266 17.67042969 7.24447266 19 8 C17.74379011 10.51241978 16.8844284 10.68322319 14.3125 11.6875 C13.64863281 11.95949219 12.98476563 12.23148438 12.30078125 12.51171875 C6.81621219 13.67567653 2.40952883 11.43608728 -2.375 8.9375 C-3.43460938 8.38964844 -4.49421875 7.84179688 -5.5859375 7.27734375 C-6.38257813 6.85582031 -7.17921875 6.43429688 -8 6 C-6.49736177 2.99472353 -4.08347159 3.02782386 -1 2 C-0.67 1.34 -0.34 0.68 0 0 Z " fill="#F6F6F7" transform="translate(14,22)"/>
<path d="M0 0 C4.08872432 1.83762891 8.05140804 3.87982008 12 6 C9.0591898 8.81827644 6.19186796 9.75390792 2.14453125 10.12841797 C-1.75248473 9.89505841 -4.71339844 8.03903473 -8 6.0625 C-8.67933594 5.67642578 -9.35867187 5.29035156 -10.05859375 4.89257812 C-11.71643347 3.94690899 -13.35982657 2.97598862 -15 2 C-15 1.34 -15 0.68 -15 0 C-14.05125 0.020625 -13.1025 0.04125 -12.125 0.0625 C-0.58597663 -0.16828047 -0.58597663 -0.16828047 0 0 Z " fill="#F4F5F6" transform="translate(46,15)"/>
<path d="M0 0 C-0.125 1.875 -0.125 1.875 -1 4 C-2.97664289 4.73302614 -4.97765086 5.40456033 -7 6 C-4.99278019 7.21036864 -2.9684867 8.39245016 -0.9375 9.5625 C0.18785156 10.22378906 1.31320313 10.88507812 2.47265625 11.56640625 C6.59491058 13.24178536 8.71629996 12.96989435 13 12 C15.33333333 11.66666667 17.66666667 11.33333333 20 11 C19 14 19 14 17.3984375 14.984375 C16.73070313 15.23703125 16.06296875 15.4896875 15.375 15.75 C14.72273438 16.01296875 14.07046875 16.2759375 13.3984375 16.546875 C6.74437881 17.80399358 0.98279436 14.96995232 -4.875 12.1875 C-6.03128906 11.67219727 -6.03128906 11.67219727 -7.2109375 11.14648438 C-7.943125 10.80294922 -8.6753125 10.45941406 -9.4296875 10.10546875 C-10.09210449 9.79762451 -10.75452148 9.48978027 -11.43701172 9.17260742 C-13.45987763 7.65498402 -13.63726548 6.44797819 -14 4 C-12.23141309 3.32739649 -10.46003984 2.66211605 -8.6875 2 C-7.70136719 1.62875 -6.71523437 1.2575 -5.69921875 0.875 C-3 0 -3 0 0 0 Z " fill="#484F58" transform="translate(14,21)"/>
<path d="M0 0 C0.83144531 0.42474609 1.66289063 0.84949219 2.51953125 1.28710938 C4.55852599 2.33004346 6.5933849 3.38028292 8.625 4.4375 C8.625 5.4275 8.625 6.4175 8.625 7.4375 C2.125 10.4375 2.125 10.4375 -2.375 10.4375 C-1.375 7.4375 -1.375 7.4375 0.625 5.4375 C-7.39879347 0.60642016 -13.07947727 -1.57531004 -22.375 0.4375 C-22.375 -0.5525 -22.375 -1.5425 -22.375 -2.5625 C-13.57947816 -6.96026092 -8.36633139 -4.3566303 0 0 Z " fill="#46515B" transform="translate(55.375,15.5625)"/>
<path d="M0 0 C4.59360817 1.3871442 8.60659502 3.26006745 12.8125 5.5625 C13.95332031 6.18253906 15.09414063 6.80257812 16.26953125 7.44140625 C19 9 19 9 20 10 C20.04080783 11.99958364 20.04254356 14.00045254 20 16 C15.26210835 14.55676531 11.01141849 12.62773267 6.625 10.375 C5.98433594 10.05015625 5.34367188 9.7253125 4.68359375 9.390625 C3.12052499 8.59742593 1.55999378 7.79922969 0 7 C0 4.69 0 2.38 0 0 Z " fill="#F3F4F4" transform="translate(2,39)"/>
<path d="M0 0 C4.59360817 1.3871442 8.60659502 3.26006745 12.8125 5.5625 C13.95332031 6.18253906 15.09414063 6.80257812 16.26953125 7.44140625 C19 9 19 9 20 10 C20.04080783 11.99958364 20.04254356 14.00045254 20 16 C15.26210835 14.55676531 11.01141849 12.62773267 6.625 10.375 C5.98433594 10.05015625 5.34367188 9.7253125 4.68359375 9.390625 C3.12052499 8.59742593 1.55999378 7.79922969 0 7 C0 4.69 0 2.38 0 0 Z " fill="#F3F3F4" transform="translate(2,29)"/>
<path d="M0 0 C3.10600335 1.45444451 6.20947021 2.91422352 9.3125 4.375 C10.19357422 4.7875 11.07464844 5.2 11.98242188 5.625 C13.25375977 6.22441406 13.25375977 6.22441406 14.55078125 6.8359375 C15.33106689 7.20251465 16.11135254 7.5690918 16.9152832 7.94677734 C19 9 19 9 22 11 C22 11.99 22 12.98 22 14 C18.52401836 13.42022443 15.70895302 12.53478895 12.57421875 10.93359375 C11.77822266 10.53076172 10.98222656 10.12792969 10.16210938 9.71289062 C8.93717773 9.08157227 8.93717773 9.08157227 7.6875 8.4375 C6.85154297 8.01275391 6.01558594 7.58800781 5.15429688 7.15039062 C3.10003574 6.1056521 1.04879708 5.05540238 -1 4 C-0.67 2.68 -0.34 1.36 0 0 Z " fill="#464D58" transform="translate(1,45)"/>
<path d="M0 0 C3.10600335 1.45444451 6.20947021 2.91422352 9.3125 4.375 C10.19357422 4.7875 11.07464844 5.2 11.98242188 5.625 C13.25375977 6.22441406 13.25375977 6.22441406 14.55078125 6.8359375 C15.33106689 7.20251465 16.11135254 7.5690918 16.9152832 7.94677734 C19 9 19 9 22 11 C22 11.66 22 12.32 22 13 C17.51774283 12.38762331 13.88894227 10.58676379 9.9375 8.5 C4.68921314 5.67546468 4.68921314 5.67546468 -1 4 C-0.67 2.68 -0.34 1.36 0 0 Z " fill="#494F58" transform="translate(1,35)"/>
<path d="M0 0 C-0.33 0.99 -0.66 1.98 -1 3 C-4.5625 4.1875 -4.5625 4.1875 -8 5 C-7.625 3.0625 -7.625 3.0625 -7 1 C-4.53721199 -0.231394 -2.7204945 -0.07159196 0 0 Z " fill="#4B5967" transform="translate(34,32)"/>
</svg>
