<?xml version="1.0" encoding="UTF-8"?>
<svg version="1.1" xmlns="http://www.w3.org/2000/svg" width="48" height="48">
<path d="M0 0 C11.22 0 22.44 0 34 0 C34 1.32 34 2.64 34 4 C29.05 4.33 24.1 4.66 19 5 C20.155 6.11375 21.31 7.2275 22.5 8.375 C24.46875 10.2734375 24.46875 10.2734375 26 12 C26 12.66 26 13.32 26 14 C24.02 14 22.04 14 20 14 C20 15.98 20 17.96 20 20 C23.96 20 27.92 20 32 20 C32 25.28 32 30.56 32 36 C32.99 36 33.98 36 35 36 C35 37.98 35 39.96 35 42 C23.12 42 11.24 42 -1 42 C-1 40.02 -1 38.04 -1 36 C-0.01 36 0.98 36 2 36 C2 30.72 2 25.44 2 20 C5.96 20 9.92 20 14 20 C14 18.02 14 16.04 14 14 C12.02 14 10.04 14 8 14 C9.6998266 9.82769834 11.44487313 8.55512687 15 5 C10.05 4.67 5.1 4.34 0 4 C0 2.68 0 1.36 0 0 Z " fill="#4A994E" transform="translate(7,3)"/>
<path d="M0 0 C11.22 0 22.44 0 34 0 C34 1.32 34 2.64 34 4 C29.05 4.33 24.1 4.66 19 5 C20.155 6.11375 21.31 7.2275 22.5 8.375 C24.46875 10.2734375 24.46875 10.2734375 26 12 C26 12.66 26 13.32 26 14 C24.02 14 22.04 14 20 14 C20 15.98 20 17.96 20 20 C18.02 20 16.04 20 14 20 C14 18.02 14 16.04 14 14 C12.02 14 10.04 14 8 14 C9.6998266 9.82769834 11.44487313 8.55512687 15 5 C10.05 4.67 5.1 4.34 0 4 C0 2.68 0 1.36 0 0 Z " fill="#FFC106" transform="translate(7,3)"/>
<path d="M0 0 C3.3 0 6.6 0 10 0 C10.33 0.99 10.66 1.98 11 3 C11.99 3.33 12.98 3.66 14 4 C14 7.63 14 11.26 14 15 C12.68 15 11.36 15 10 15 C9.525625 14.505 9.05125 14.01 8.5625 13.5 C7.04581569 11.75335258 7.04581569 11.75335258 4.4375 11.625 C3.633125 11.74875 2.82875 11.8725 2 12 C1.01 13.485 1.01 13.485 0 15 C-1.32 15 -2.64 15 -4 15 C-4 11.37 -4 7.74 -4 4 C-3.01 3.67 -2.02 3.34 -1 3 C-0.67 2.01 -0.34 1.02 0 0 Z " fill="#9DD19F" transform="translate(15,25)"/>
<path d="M0 0 C0.66 0 1.32 0 2 0 C2 5.28 2 10.56 2 16 C2.99 16 3.98 16 5 16 C5 17.98 5 19.96 5 22 C-6.88 22 -18.76 22 -31 22 C-31 20.02 -31 18.04 -31 16 C-30.01 16 -29.02 16 -28 16 C-28 16.99 -28 17.98 -28 19 C-18.76 19 -9.52 19 0 19 C0 12.73 0 6.46 0 0 Z " fill="#294638" transform="translate(37,23)"/>
<path d="M0 0 C11.22 0 22.44 0 34 0 C34 1.32 34 2.64 34 4 C22.78 4 11.56 4 0 4 C0 2.68 0 1.36 0 0 Z " fill="#F44336" transform="translate(7,3)"/>
<path d="M0 0 C1.32 0 2.64 0 4 0 C4 6.27 4 12.54 4 19 C2.68 19 1.36 19 0 19 C0 12.73 0 6.46 0 0 Z " fill="#6AAF6D" transform="translate(33,23)"/>
</svg>
